<svg height="20" width="20" version="1.1" id="Layer_1" xmlns="http://www.w3.org/2000/svg" xmlns:xlink="http://www.w3.org/1999/xlink" viewBox="0 0 512 512" xml:space="preserve" fill="#000000"><g id="SVGRepo_bgCarrier" stroke-width="0"></g><g id="SVGRepo_tracerCarrier" stroke-linecap="round" stroke-linejoin="round"></g><g id="SVGRepo_iconCarrier"> <path style="fill:#ecfd08;" d="M417.992,501.801H94.008v-329.61c0-89.465,72.527-161.992,161.992-161.992l0,0 c89.465,0,161.992,72.527,161.992,161.992v329.61H417.992z"></path> <g> <path style="fill:#ffffff;" d="M233.501,201.44c0,27.026-21.909,48.935-48.935,48.935s-48.935-21.909-48.935-48.935H233.501z"></path> <path style="fill:#ffffff;" d="M376.369,201.44c0,27.026-21.909,48.935-48.935,48.935S278.5,228.466,278.5,201.44H376.369z"></path> </g> <path d="M255.999,0C161.053,0,83.808,77.245,83.808,172.191v329.61c0,5.633,4.566,10.199,10.199,10.199h323.985 c5.632,0,10.199-4.566,10.199-10.199v-329.61C428.191,77.245,350.946,0,255.999,0z M407.792,491.602h-32.474v-68.736 c0-5.633-4.567-10.199-10.199-10.199c-5.632,0-10.199,4.566-10.199,10.199v68.736h-34.161V383.028 c0-5.633-4.567-10.199-10.199-10.199c-5.632,0-10.199,4.566-10.199,10.199v108.574h-34.161v-68.736 c0-5.633-4.567-10.199-10.199-10.199c-5.633,0-10.199,4.566-10.199,10.199v68.736h-34.161V383.028 c0-5.633-4.566-10.199-10.199-10.199c-5.633,0-10.199,4.566-10.199,10.199v108.574h-34.162v-68.736 c0-5.633-4.566-10.199-10.199-10.199c-5.633,0-10.199,4.566-10.199,10.199v68.736h-32.474V172.191 c0.001-83.699,68.095-151.793,151.794-151.793s151.793,68.094,151.793,151.793V491.602z"></path> <path d="M365.12,376.351c-5.632,0-10.199,4.566-10.199,10.199v5.197c0,5.633,4.567,10.199,10.199,10.199 c5.632,0,10.199-4.566,10.199-10.199v-5.197C375.319,380.917,370.752,376.351,365.12,376.351z"></path> <path d="M233.501,191.241h-97.87c-5.633,0-10.199,4.566-10.199,10.199c0,32.607,26.527,59.134,59.134,59.134 S243.7,234.047,243.7,201.44C243.7,195.807,239.134,191.241,233.501,191.241z M184.565,240.176 c-17.829,0-32.885-12.111-37.373-28.536h74.747C217.451,228.065,202.396,240.176,184.565,240.176z"></path> <path d="M268.3,201.44c0,32.607,26.528,59.134,59.134,59.134s59.134-26.527,59.134-59.134c0-5.633-4.567-10.199-10.199-10.199 h-97.87C272.866,191.241,268.3,195.807,268.3,201.44z M364.808,211.64c-4.488,16.426-19.544,28.536-37.374,28.536 c-17.83,0-32.885-12.111-37.374-28.536H364.808z"></path> </g></svg>